<?xml version="1.0" encoding="UTF-8"?>
<svg width="100px" height="76px" viewBox="0 0 100 76" version="1.1" xmlns="http://www.w3.org/2000/svg" xmlns:xlink="http://www.w3.org/1999/xlink">
    <!-- Generator: Sketch 51 (57462) - http://www.bohemiancoding.com/sketch -->
    <title>YP</title>
    <desc>Created with Sketch.</desc>
    <defs></defs>
    <g id="0723" stroke="none" stroke-width="1" fill="none" fill-rule="evenodd">
        <g id="YP" fill="#ffffff">
            <path d="M0,70.0848599 L1.00987433,70.0848599 C1.49611254,70.7973635 2.00104466,71.5567309 2.52468582,72.3629849 C2.54338729,72.381735 2.59014026,72.4567343 2.66494614,72.5879849 C2.73975202,72.7004855 2.78650499,72.7754847 2.80520646,72.8129849 C2.89871381,72.6629842 2.99221976,72.5223606 3.08572711,72.3911099 C3.16053299,72.2598593 3.65611451,71.491117 4.57248654,70.0848599 L5.58236086,70.0848599 L3.19793537,73.4879849 L3.19793537,75.8504849 L2.32832136,75.8504849 L2.32832136,73.4879849 L0,70.0848599 Z M10.6754937,70.0004849 C12.4147304,70.1129855 13.3497899,71.1161005 13.4807002,73.0098599 C13.3871928,74.8661192 12.4427828,75.8411095 10.6474417,75.9348599 C8.85210054,75.8411095 7.91704107,74.8661192 7.84223519,73.0098599 C7.93574254,71.0973504 8.8801526,70.0942354 10.6754937,70.0004849 Z M10.6193896,75.2317349 C11.8162837,75.1754846 12.4427735,74.434867 12.4988779,73.0098599 C12.4427735,71.6036029 11.8256343,70.8536104 10.6474417,70.7598599 C9.46924905,70.8536104 8.8427592,71.6036029 8.76795332,73.0098599 C8.82405773,74.3973669 9.44119698,75.1379845 10.6193896,75.2317349 Z M16.3296679,73.4317349 L16.3296679,70.0848599 L17.2273339,70.0848599 L17.2273339,73.4317349 C17.2273339,74.650491 17.7416166,75.250485 18.7701975,75.2317349 C19.7987783,75.2317349 20.313061,74.622366 20.313061,73.4036099 L20.313061,70.0848599 L21.2107271,70.0848599 L21.2107271,73.4036099 C21.2107271,75.0911184 20.3878748,75.9348599 18.7421454,75.9348599 C17.133819,75.9348599 16.3296679,75.1004933 16.3296679,73.4317349 Z M29.3895871,75.8504849 L28.2675045,75.8504849 L26.5002244,73.4598599 L25.1817774,73.4598599 L25.1817774,75.8504849 L24.3121634,75.8504849 L24.3121634,70.0848599 L26.9771095,70.0848599 C28.2675109,70.1223601 28.9501044,70.6754796 29.0249102,71.7442349 C29.0249102,72.7192398 28.4919263,73.2723593 27.4259425,73.4036099 L29.3895871,75.8504849 Z M25.1817774,70.7879849 L25.1817774,72.7567349 L26.7807451,72.7567349 C27.6784156,72.7567349 28.1178936,72.4286132 28.0991921,71.7723599 C28.0991921,71.1161066 27.6597141,70.7879849 26.7807451,70.7879849 L25.1817774,70.7879849 Z M31.7055655,74.1067349 L32.6032316,73.9098599 C32.7341419,74.8286145 33.2671258,75.2879849 34.2021993,75.2879849 C35.025064,75.2692348 35.4551913,74.9411131 35.4925943,74.3036099 C35.5486987,73.8723578 35.1653243,73.544236 34.3424596,73.3192349 C34.2676537,73.2817347 34.1086936,73.2348602 33.8655745,73.1786099 C33.7907686,73.1598598 33.7346651,73.1504849 33.6972621,73.1504849 C32.4442636,72.8879836 31.8551762,72.353614 31.929982,71.5473599 C32.0047879,70.572355 32.6873813,70.0567352 33.9777828,70.0004849 C35.2868857,69.9817348 36.0536344,70.5067296 36.2780521,71.5754849 L35.4084381,71.7723599 C35.2775278,71.0786065 34.8193486,70.7317349 34.0338869,70.7317349 C33.3045296,70.750485 32.9118046,71.0223573 32.8557002,71.5473599 C32.7995958,71.9786121 33.2484243,72.287984 34.2021993,72.4754849 C34.5762287,72.5692354 34.8567465,72.6442346 35.0437612,72.7004849 C35.9975362,73.0004864 36.4650659,73.5254812 36.4463645,74.2754849 C36.4089615,75.3442403 35.6702645,75.8973597 34.2302513,75.9348599 C32.7902382,75.9723601 31.9486846,75.3629912 31.7055655,74.1067349 Z M47.5833759,73.6848599 L46.1246686,73.6848599 L46.1246686,75.8504849 L45.2270025,75.8504849 L45.2270025,70.0848599 L47.6675321,70.0848599 C48.9579335,70.1411102 49.640527,70.7223544 49.7153328,71.8286099 C49.6966314,73.047366 48.9859862,73.6661098 47.5833759,73.6848599 Z M47.4711677,70.7879849 L46.1246686,70.7879849 L46.1246686,72.9817349 L47.4711677,72.9817349 C48.3314353,72.9629848 48.7709132,72.5879886 48.7896147,71.8567349 C48.7522118,71.1629815 48.3127338,70.806735 47.4711677,70.7879849 Z M54.6468858,70.0848599 L56.9471551,75.8504849 L55.9933849,75.8504849 L55.4042915,74.3036099 L52.8515537,74.3036099 L52.2624603,75.8504849 L51.3086901,75.8504849 L53.6089594,70.0848599 L54.6468858,70.0848599 Z M54.1419486,70.8442349 L54.1138966,70.8442349 L53.9455842,71.3504849 C53.9268827,71.3879851 53.6370143,72.1379776 53.0759702,73.6004849 L55.179875,73.6004849 C54.6188309,72.1379776 54.3289625,71.3879851 54.310261,71.3504849 C54.310261,71.3317348 54.3009104,71.2942352 54.282209,71.2379849 C54.1887016,71.0129838 54.1419486,70.8817351 54.1419486,70.8442349 Z M63.9265088,75.8504849 L62.8044262,75.8504849 L61.0371461,73.4598599 L59.7186991,73.4598599 L59.7186991,75.8504849 L58.8490851,75.8504849 L58.8490851,70.0848599 L61.5140312,70.0848599 C62.8044326,70.1223601 63.4870261,70.6754796 63.5618319,71.7442349 C63.5618319,72.7192398 63.028848,73.2723593 61.9628643,73.4036099 L63.9265088,75.8504849 Z M59.7186991,70.7879849 L59.7186991,72.7567349 L61.3176668,72.7567349 C62.2153373,72.7567349 62.6548153,72.4286132 62.6361138,71.7723599 C62.6361138,71.1161066 62.1966359,70.7879849 61.3176668,70.7879849 L59.7186991,70.7879849 Z M70.260665,70.8161099 L68.2970205,70.8161099 L68.2970205,75.8504849 L67.4274064,75.8504849 L67.4274064,70.8161099 L65.4357099,70.8161099 L65.4357099,70.0848599 L70.260665,70.0848599 L70.260665,70.8161099 Z M72.3870115,75.8504849 L72.3870115,70.0848599 L73.2566255,70.0848599 L73.2566255,75.8504849 L72.3870115,75.8504849 Z M78.5248032,70.0848599 L80.8250725,75.8504849 L79.8713023,75.8504849 L79.282209,74.3036099 L76.7294711,74.3036099 L76.1403777,75.8504849 L75.1866075,75.8504849 L77.4868768,70.0848599 L78.5248032,70.0848599 Z M78.0198661,70.8442349 L77.991814,70.8442349 L77.8235016,71.3504849 C77.8048001,71.3879851 77.5149317,72.1379776 76.9538876,73.6004849 L79.0577924,73.6004849 C78.4967483,72.1379776 78.2068799,71.3879851 78.1881784,71.3504849 C78.1881784,71.3317348 78.1788278,71.2942352 78.1601264,71.2379849 C78.066619,71.0129838 78.0198661,70.8817351 78.0198661,70.8442349 Z M86.6262395,75.8504849 L82.6989504,75.8504849 L82.6989504,70.0848599 L83.5685644,70.0848599 L83.5685644,75.1754849 L86.6262395,75.1754849 L86.6262395,75.8504849 Z M92.7079271,75.8504849 L88.780638,75.8504849 L88.780638,70.0848599 L89.650252,70.0848599 L89.650252,75.1754849 L92.7079271,75.1754849 L92.7079271,75.8504849 Z M94.2732323,70.0848599 L95.2831066,70.0848599 C95.7693448,70.7973635 96.274277,71.5567309 96.7979181,72.3629849 C96.8166196,72.381735 96.8633726,72.4567343 96.9381784,72.5879849 C97.0129843,72.7004855 97.0597373,72.7754847 97.0784388,72.8129849 C97.1719461,72.6629842 97.2654521,72.5223606 97.3589594,72.3911099 C97.4337653,72.2598593 97.9293468,71.491117 98.8457188,70.0848599 L99.8555932,70.0848599 L97.4711677,73.4879849 L97.4711677,75.8504849 L96.6015537,75.8504849 L96.6015537,73.4879849 L94.2732323,70.0848599 Z" id="YOURS-PARTIALLY"></path>
            <g id="Group-6">
                <rect id="Rectangle-6" x="51" y="0" width="1.79533214" height="63.36"></rect>
                <path d="M18.4512455,36.5333594 L6.38289666,12.2101563 C5.36132886,10.3398344 4.39529555,9.09853822 3.48476773,8.48623047 C2.57423991,7.87392272 1.53235169,7.56777344 0,7.56777344 L0,7 L16.8964598,7 L16.8964598,7.56777344 C15.8971,7.56777344 15.2549497,7.640136 14.6109179,7.78486328 C13.966886,7.92959057 13.4561098,8.16894364 13.0785738,8.50292969 C12.7010379,8.83691573 12.5400324,9.29892283 12.5955523,9.88896484 C12.6510723,10.4790069 12.9231162,11.2081988 13.4116921,12.0765625 L24.0139699,35.0325391 L32.3032276,16.7309268 C33.7132397,13.7170842 34.499675,11.7648482 34.6625337,10.8742187 C34.7291576,10.4957012 34.7624691,10.1505875 34.7624691,9.83886719 C34.7624691,9.05956642 34.5514963,8.51406406 34.1295444,8.20234375 C33.5077206,7.77929476 32.4195451,7.56777344 30.8649854,7.56777344 L30.8649854,7 L41.2249635,7 L41.2249635,7.56777344 C39.8924838,7.56777344 38.5567909,8.16547512 37.6164678,9.09222488 C37.0944,9.60675675 36.6136682,10.1429771 35.6153036,11.7861274 C35.1589684,12.5371831 34.3472119,14.1325971 33.1800342,16.5723693 L24.3888252,36.5333594 L18.4512455,36.5333594 Z M24.4137118,39.2333594 L24.4137118,51.375625 C24.4137118,53.3572755 24.7745864,54.7098987 25.4963462,55.4335352 C26.2181061,56.1571716 27.926288,56.5189844 29.9027996,56.5189844 L29.9027996,57.0533594 L13.2468862,57.0533594 L13.2468862,56.5189844 C15.2233978,56.5189844 16.7520465,56.1905697 17.4738064,55.5337305 C18.1955662,54.8768912 18.5564408,53.602197 18.5564408,51.7096094 L18.5564408,39.2333594 L24.4137118,39.2333594 Z" id="Combined-Shape"></path>
                <path d="M63,7.74095072 L63,7.17317728 L65.5983225,7.17317728 C67.0640502,7.17317728 69.2626088,7.12864648 72.1940642,7.03958353 C75.1255196,6.95052059 77.5239481,7.03958353 79.1895478,7.03958353 C85.4522025,7.03958353 90.0713953,8.17511771 93.2471387,10.7134117 C96.4228821,13.2517056 98.0107299,16.3743643 98.0107299,21.1614976 C98.0107299,26.2380855 96.3784667,29.3700001 93.1138914,31.997357 C89.849316,34.6247139 86.2595221,36.1183726 79.1895478,36.1183726 C76.8577083,36.1183726 75.2365489,36.0961072 74.3260211,36.0515757 L74.3260211,51.1684117 C74.3260211,53.2168594 74.7590705,54.6195797 75.6251823,55.3766148 C76.4912942,56.1336498 78.1013497,56.5121617 80.4553972,56.5121617 L80.4553972,57.0465367 L63.1332473,57.0465367 L63.1332473,56.5121617 C64.9765109,56.5121617 66.2367958,56.1670479 66.9141396,55.4768101 C67.5914835,54.7865723 67.9301504,53.4617808 67.9301504,51.502396 L67.9301504,13.0847007 C67.9301504,11.0139872 67.5859316,9.60570054 66.8974837,8.85979838 C66.2090359,8.11389621 64.9098876,7.74095072 63,7.74095072 Z M74.3260211,35.1925876 C82.8205369,35.1925876 85.6747606,34.3173291 88.4002679,31.847064 C91.1257752,29.3767989 91.3150527,26.6833972 91.3150527,21.7626695 C91.3150527,16.7083473 90.2657407,13.5355915 88.1670851,11.1642906 C86.0684295,8.79298964 82.9430765,7.89924216 78.4570614,7.89924216 C77.2800376,7.89924216 75.6251823,7.97706317 74.3260211,8.21955298 L74.3260211,35.1925876 Z" id="P"></path>
            </g>
        </g>
    </g>
</svg>